<svg id="ev5kbkxivn91" xmlns="http://www.w3.org/2000/svg" xmlns:xlink="http://www.w3.org/1999/xlink" viewBox="0 0 480 480" shape-rendering="geometricPrecision" text-rendering="geometricPrecision"><style><![CDATA[#ev5kbkxivn92_to {animation: ev5kbkxivn92_to__to 6000ms linear infinite normal forwards}@keyframes ev5kbkxivn92_to__to { 0% {transform: translate(0px,0px)} 11.666667% {transform: translate(-38.029324px,45.321684px)} 25% {transform: translate(0px,0px)} 100% {transform: translate(0px,0px)} }#ev5kbkxivn92_tr {animation: ev5kbkxivn92_tr__tr 6000ms linear infinite normal forwards}@keyframes ev5kbkxivn92_tr__tr { 0% {transform: rotate(0deg)} 11.666667% {transform: rotate(-10deg)} 25% {transform: rotate(0deg)} 100% {transform: rotate(0deg)} }]]></style><g id="ev5kbkxivn92_to" transform="translate(0,0)"><g id="ev5kbkxivn92_tr" transform="rotate(0)"><path id="ev5kbkxivn92" d="M459.782000,347.328000C455.494000,342.048000,448.294000,340.096000,441.958000,342.368000C424.198000,348.736000,404.934000,352,384.646000,352C287.590000,352,208.646000,273.024000,208.646000,176C208.646000,117.600000,237.478000,63.232000,285.766000,30.528000C291.238000,26.816000,293.862000,20.128000,292.390000,13.696000C290.918000,7.264000,285.638000,2.400000,279.078000,1.440000C271.590000,0.352000,264.134000,0,256.646000,0C124.294000,0,16.646000,107.648000,16.646000,240C16.646000,372.352000,124.294000,480,256.646000,480C340.646000,480,417.062000,437.312000,460.998000,365.824000C464.550000,360.032000,464.038000,352.640000,459.782000,347.328000Z" transform="translate(0,0)" fill="rgb(176,190,197)" stroke="none" stroke-width="1"/></g></g></svg>