<svg id="exkj448c93ak1" xmlns="http://www.w3.org/2000/svg" xmlns:xlink="http://www.w3.org/1999/xlink" viewBox="0 0 512 512" shape-rendering="geometricPrecision" text-rendering="geometricPrecision"><style><![CDATA[#exkj448c93ak3_to {animation: exkj448c93ak3_to__to 9000ms linear infinite normal forwards}@keyframes exkj448c93ak3_to__to { 0% {transform: translate(0px,0px)} 22.222222% {transform: translate(0px,0px)} 44.444444% {transform: translate(96px,0px)} 66.666667% {transform: translate(96px,0px)} 88.888889% {transform: translate(0px,0px)} 100% {transform: translate(0px,0px)} }]]></style><path id="exkj448c93ak2" d="M412.864000,176.032000C397.920000,102.016000,333.088000,48,256,48C191.968000,48,134.496000,86.112000,109.312000,144.032000C48.800000,145.472000,0,195.136000,0,256C0,317.760000,50.240000,368,112,368L416,368C468.928000,368,512,324.928000,512,272C512,218.016000,466.464000,174.656000,412.864000,176.032000Z" fill="rgb(144,202,249)" stroke="none" stroke-width="1"/><g id="exkj448c93ak3_to" transform="translate(0,0)"><path id="exkj448c93ak3" d="M336,304C334.592000,304,333.216000,304.032000,331.872000,304.096000C317.632000,248.288000,267.008000,208,208,208C162.400000,208,120.032000,232.800000,97.248000,272C96.832000,272,96.416000,272,96,272C43.072000,272,0,315.072000,0,368C0,420.928000,43.072000,464,96,464L336,464C380.128000,464,416,428.128000,416,384C416,339.872000,380.128000,304,336,304Z" transform="translate(0,0)" fill="rgb(0,168,255)" stroke="none" stroke-width="1"/></g></svg>