<svg id="e4vknhyk86991" xmlns="http://www.w3.org/2000/svg" xmlns:xlink="http://www.w3.org/1999/xlink" viewBox="0 0 512 512" shape-rendering="geometricPrecision" text-rendering="geometricPrecision"><style><![CDATA[#e4vknhyk86994_to {animation: e4vknhyk86994_to__to 8000ms linear infinite normal forwards}@keyframes e4vknhyk86994_to__to { 0% {transform: translate(0px,0px)} 8.750000% {transform: translate(32px,0px)} 18.750000% {transform: translate(0px,0px)} 28.750000% {transform: translate(-32px,0px)} 37.500000% {transform: translate(0px,0px)} 46.250000% {transform: translate(32px,0px)} 56.250000% {transform: translate(0px,0px)} 66.250000% {transform: translate(-32px,0px)} 75% {transform: translate(0px,0px)} 100% {transform: translate(0px,0px)} }#e4vknhyk86995_to {animation: e4vknhyk86995_to__to 8000ms linear infinite normal forwards}@keyframes e4vknhyk86995_to__to { 0% {transform: translate(0px,-1.013862px)} 18.750000% {transform: translate(32px,-1.013862px)} 37.500000% {transform: translate(0px,-1.013862px)} 56.250000% {transform: translate(-32px,-1.013862px)} 75% {transform: translate(0px,-1.013862px)} 100% {transform: translate(0px,-1.013862px)} }]]></style><path id="e4vknhyk86992" d="M416,160C414.976000,160,413.952000,160,412.864000,160.032000C397.952000,86.016000,333.088000,32,256,32C191.968000,32,134.496000,70.112000,109.312000,128.032000C48.800000,129.472000,0,179.136000,0,240C0,301.760000,50.240000,352,112,352L416,352C468.928000,352,512,308.928000,512,256C512,203.072000,468.928000,160,416,160Z" fill="rgb(0,168,255)" stroke="none" stroke-width="1"/><g id="e4vknhyk86993"><g id="e4vknhyk86994_to" transform="translate(0,0)"><path id="e4vknhyk86994" d="M464,384L48,384C39.168000,384,32,391.168000,32,400C32,408.832000,39.168000,416,48,416L464,416C472.832000,416,480,408.832000,480,400C480,391.168000,472.832000,384,464,384Z" transform="translate(0,0)" fill="rgb(96,125,139)" stroke="none" stroke-width="1"/></g><g id="e4vknhyk86995_to" transform="translate(0,-1.013862)"><path id="e4vknhyk86995" d="M464,448L48,448C39.168000,448,32,455.168000,32,464C32,472.832000,39.168000,480,48,480L464,480C472.832000,480,480,472.832000,480,464C480,455.168000,472.832000,448,464,448Z" transform="translate(0,0)" fill="rgb(96,125,139)" stroke="none" stroke-width="1"/></g></g></svg>