<svg id="edp377gkbz0n1" xmlns="http://www.w3.org/2000/svg" xmlns:xlink="http://www.w3.org/1999/xlink" viewBox="0 0 512.003000 512.003000" shape-rendering="geometricPrecision" text-rendering="geometricPrecision"><style><![CDATA[#edp377gkbz0n3_to {animation: edp377gkbz0n3_to__to 9000ms linear infinite normal forwards}@keyframes edp377gkbz0n3_to__to { 0% {transform: translate(51.201500px,0px)} 16.666667% {transform: translate(102.403000px,0px)} 33.333333% {transform: translate(51.201500px,0px)} 50% {transform: translate(51.201500px,0px)} 66.666667% {transform: translate(0px,0px)} 83.333333% {transform: translate(51.201500px,0px)} 100% {transform: translate(51.201500px,0px)} }]]></style><path id="edp377gkbz0n2" d="M504.576000,170.054000C499.520000,166.790000,493.056000,166.694000,487.904000,169.734000C481.088000,173.734000,472.896000,175.846000,464.320000,175.846000C437.856000,175.846000,416.320000,154.310000,416.320000,127.846000C416.320000,119.238000,418.432000,111.078000,422.432000,104.262000C425.472000,99.078000,425.344000,92.646000,422.112000,87.558000C418.848000,82.502000,412.960000,79.654000,407.104000,80.230000C357.632000,84.902000,320.320000,126.022000,320.320000,175.846000C320.320000,228.774000,363.392000,271.846000,416.320000,271.846000C466.144000,271.846000,507.264000,234.534000,511.936000,185.030000C512.480000,179.078000,509.664000,173.254000,504.576000,170.054000Z" fill="rgb(176,190,197)" stroke="none" stroke-width="1"/><g id="edp377gkbz0n3_to" transform="translate(51.201500,0)"><path id="edp377gkbz0n3" d="M412.864000,239.878000C397.920000,165.862000,333.088000,111.846000,256,111.846000C191.968000,111.846000,134.496000,149.958000,109.312000,207.878000C48.800000,209.318000,0,258.982000,0,319.846000C0,381.606000,50.240000,431.846000,112,431.846000L416,431.846000C468.928000,431.846000,512,388.774000,512,335.846000C512,281.862000,466.464000,238.502000,412.864000,239.878000Z" transform="scale(0.800000,0.800000) translate(0,0)" fill="rgb(0,168,255)" stroke="none" stroke-width="1"/></g></svg>