<svg id="efuvus6uo8qt1" xmlns="http://www.w3.org/2000/svg" xmlns:xlink="http://www.w3.org/1999/xlink" viewBox="0 0 512 512" shape-rendering="geometricPrecision" text-rendering="geometricPrecision"><style><![CDATA[#efuvus6uo8qt3_to {animation: efuvus6uo8qt3_to__to 2500ms linear infinite normal forwards}@keyframes efuvus6uo8qt3_to__to { 0% {transform: translate(158px,-184px)} 60% {transform: translate(158px,-184px)} 80% {transform: translate(158px,-84px)} 100% {transform: translate(158px,16px)} }#efuvus6uo8qt5_to {animation: efuvus6uo8qt5_to__to 2500ms linear infinite normal forwards}@keyframes efuvus6uo8qt5_to__to { 0% {transform: translate(-158px,-184px)} 20% {transform: translate(-158px,-184px)} 40% {transform: translate(-158px,-84px)} 60% {transform: translate(-158px,16px)} 100% {transform: translate(-158px,16px)} }#efuvus6uo8qt5 {animation: efuvus6uo8qt5_f_o 2500ms linear infinite normal forwards}@keyframes efuvus6uo8qt5_f_o { 0% {fill-opacity: 1} 60% {fill-opacity: 1} 64% {fill-opacity: 0} 100% {fill-opacity: 0} }#efuvus6uo8qt6_to {animation: efuvus6uo8qt6_to__to 2500ms linear infinite normal forwards}@keyframes efuvus6uo8qt6_to__to { 0% {transform: translate(0px,-184px)} 40% {transform: translate(0px,16px)} 100% {transform: translate(0px,16px)} }#efuvus6uo8qt6 {animation: efuvus6uo8qt6_f_o 2500ms linear infinite normal forwards}@keyframes efuvus6uo8qt6_f_o { 0% {fill-opacity: 1} 40% {fill-opacity: 1} 44% {fill-opacity: 0} 100% {fill-opacity: 0} }]]></style><path id="efuvus6uo8qt2" d="M416,144C414.976000,144,413.952000,144,412.864000,144.032000C397.952000,70.016000,333.088000,16,256,16C191.968000,16,134.496000,54.112000,109.312000,112.032000C48.800000,113.472000,0,163.136000,0,224C0,285.760000,50.240000,336,112,336L416,336C468.928000,336,512,292.928000,512,240C512,187.072000,468.928000,144,416,144Z" fill="rgb(0,168,255)" stroke="none" stroke-width="1"/><g id="efuvus6uo8qt3_to" transform="translate(158,-184)"><path id="efuvus6uo8qt3" d="M242.848000,374.912000C232.352000,390.048000,208,427.520000,208,448C208,474.464000,229.536000,496,256,496C282.464000,496,304,474.464000,304,448C304,427.520000,279.648000,390.048000,269.152000,374.912000C263.200000,366.272000,248.800000,366.272000,242.848000,374.912000Z" transform="translate(0,0)" fill="rgb(0,168,255)" stroke="none" stroke-width="1"/></g><g id="efuvus6uo8qt4"/><g id="efuvus6uo8qt5_to" transform="translate(-158,-184)"><path id="efuvus6uo8qt5" d="M242.848000,374.912000C232.352000,390.048000,208,427.520000,208,448C208,474.464000,229.536000,496,256,496C282.464000,496,304,474.464000,304,448C304,427.520000,279.648000,390.048000,269.152000,374.912000C263.200000,366.272000,248.800000,366.272000,242.848000,374.912000Z" transform="translate(0,0)" fill="rgb(0,168,255)" stroke="none" stroke-width="1"/></g><g id="efuvus6uo8qt6_to" transform="translate(0,-184)"><path id="efuvus6uo8qt6" d="M242.848000,374.912000C232.352000,390.048000,208,427.520000,208,448C208,474.464000,229.536000,496,256,496C282.464000,496,304,474.464000,304,448C304,427.520000,279.648000,390.048000,269.152000,374.912000C263.200000,366.272000,248.800000,366.272000,242.848000,374.912000Z" transform="translate(0,0)" fill="rgb(0,168,255)" stroke="none" stroke-width="1"/></g></svg>