<svg id="efumo7vt3k5h1" xmlns="http://www.w3.org/2000/svg" xmlns:xlink="http://www.w3.org/1999/xlink" viewBox="0 0 512 512" shape-rendering="geometricPrecision" text-rendering="geometricPrecision"><style><![CDATA[#efumo7vt3k5h2_to {animation: efumo7vt3k5h2_to__to 4000ms linear infinite normal forwards}@keyframes efumo7vt3k5h2_to__to { 0% {transform: translate(112px,-184px)} 75% {transform: translate(112px,-184px)} 100% {transform: translate(112px,16px)} }#efumo7vt3k5h3_to {animation: efumo7vt3k5h3_to__to 4000ms linear infinite normal forwards}@keyframes efumo7vt3k5h3_to__to { 0% {transform: translate(-46px,-184px)} 50% {transform: translate(-46px,-184px)} 75% {transform: translate(-46px,16px)} 100% {transform: translate(-46px,16px)} }#efumo7vt3k5h3 {animation: efumo7vt3k5h3_f_o 4000ms linear infinite normal forwards}@keyframes efumo7vt3k5h3_f_o { 0% {fill-opacity: 1} 75% {fill-opacity: 1} 77.500000% {fill-opacity: 0} 100% {fill-opacity: 0} }#efumo7vt3k5h4_to {animation: efumo7vt3k5h4_to__to 4000ms linear infinite normal forwards}@keyframes efumo7vt3k5h4_to__to { 0% {transform: translate(270px,-184px)} 12.500000% {transform: translate(270px,-184px)} 37.500000% {transform: translate(270px,16px)} 100% {transform: translate(270px,16px)} }#efumo7vt3k5h4 {animation: efumo7vt3k5h4_f_o 4000ms linear infinite normal forwards}@keyframes efumo7vt3k5h4_f_o { 0% {fill-opacity: 1} 37.500000% {fill-opacity: 1} 40% {fill-opacity: 0} 100% {fill-opacity: 0} }#efumo7vt3k5h5_to {animation: efumo7vt3k5h5_to__to 4000ms linear infinite normal forwards}@keyframes efumo7vt3k5h5_to__to { 0% {transform: translate(78.410453px,-184px)} 62.500000% {transform: translate(78.410453px,-184px)} 87.500000% {transform: translate(78.410453px,16px)} 100% {transform: translate(78.410453px,16px)} }#efumo7vt3k5h5 {animation: efumo7vt3k5h5_f_o 4000ms linear infinite normal forwards}@keyframes efumo7vt3k5h5_f_o { 0% {fill-opacity: 1} 87.500000% {fill-opacity: 1} 90% {fill-opacity: 0} 100% {fill-opacity: 0} }#efumo7vt3k5h6_to {animation: efumo7vt3k5h6_to__to 4000ms linear infinite normal forwards}@keyframes efumo7vt3k5h6_to__to { 0% {transform: translate(-238.431665px,-184px)} 25% {transform: translate(-238.431665px,16px)} 100% {transform: translate(-238.431665px,16px)} }#efumo7vt3k5h6 {animation: efumo7vt3k5h6_f_o 4000ms linear infinite normal forwards}@keyframes efumo7vt3k5h6_f_o { 0% {fill-opacity: 1} 25% {fill-opacity: 1} 27.500000% {fill-opacity: 0} 100% {fill-opacity: 0} }#efumo7vt3k5h7_to {animation: efumo7vt3k5h7_to__to 4000ms linear infinite normal forwards}@keyframes efumo7vt3k5h7_to__to { 0% {transform: translate(-80.010606px,-184px)} 25% {transform: translate(-80.010606px,-184px)} 50% {transform: translate(-80.010606px,16px)} 100% {transform: translate(-80.010606px,16px)} }#efumo7vt3k5h7 {animation: efumo7vt3k5h7_f_o 4000ms linear infinite normal forwards}@keyframes efumo7vt3k5h7_f_o { 0% {fill-opacity: 1} 50% {fill-opacity: 1} 52.500000% {fill-opacity: 0} 100% {fill-opacity: 0} }]]></style><g id="efumo7vt3k5h2_to" transform="translate(112,-184)"><path id="efumo7vt3k5h2" d="M130.848000,374.912000C120.352000,390.048000,96,427.520000,96,448C96,474.464000,117.536000,496,144,496C170.464000,496,192,474.464000,192,448C192,427.520000,167.648000,390.048000,157.152000,374.912000C151.200000,366.272000,136.800000,366.272000,130.848000,374.912000Z" transform="translate(0,0)" fill="rgb(0,168,255)" stroke="none" stroke-width="1"/></g><g id="efumo7vt3k5h3_to" transform="translate(-46,-184)"><path id="efumo7vt3k5h3" d="M130.848000,374.912000C120.352000,390.048000,96,427.520000,96,448C96,474.464000,117.536000,496,144,496C170.464000,496,192,474.464000,192,448C192,427.520000,167.648000,390.048000,157.152000,374.912000C151.200000,366.272000,136.800000,366.272000,130.848000,374.912000Z" transform="translate(0,0)" fill="rgb(0,168,255)" stroke="none" stroke-width="1"/></g><g id="efumo7vt3k5h4_to" transform="translate(270,-184)"><path id="efumo7vt3k5h4" d="M130.848000,374.912000C120.352000,390.048000,96,427.520000,96,448C96,474.464000,117.536000,496,144,496C170.464000,496,192,474.464000,192,448C192,427.520000,167.648000,390.048000,157.152000,374.912000C151.200000,366.272000,136.800000,366.272000,130.848000,374.912000Z" transform="translate(0,0)" fill="rgb(0,168,255)" stroke="none" stroke-width="1"/></g><g id="efumo7vt3k5h5_to" transform="translate(78.410453,-184)"><path id="efumo7vt3k5h5" d="M391.392000,400C387.008000,392.320000,377.184000,389.696000,369.536000,394.144000L352,404.288000L352,384C352,375.168000,344.832000,368,336,368C327.168000,368,320,375.168000,320,384L320,404.288000L302.432000,394.144000C294.816000,389.728000,285.024000,392.352000,280.576000,400C276.160000,407.648000,278.784000,417.440000,286.432000,421.856000L304.032000,432L286.432000,442.144000C278.784000,446.560000,276.160000,456.352000,280.576000,464C283.552000,469.120000,288.928000,472,294.432000,472C297.152000,472,299.904000,471.328000,302.432000,469.856000L320,459.712000L320,480C320,488.832000,327.168000,496,336,496C344.832000,496,352,488.832000,352,480L352,459.712000L369.568000,469.856000C372.096000,471.328000,374.848000,472,377.568000,472C383.072000,472,388.480000,469.120000,391.424000,464C395.872000,456.352000,393.248000,446.560000,385.568000,442.144000L367.968000,432L385.568000,421.856000C393.216000,417.440000,395.840000,407.648000,391.392000,400Z" transform="translate(0,0)" fill="rgb(126,129,144)" stroke="none" stroke-width="1"/></g><g id="efumo7vt3k5h6_to" transform="translate(-238.431665,-184)"><path id="efumo7vt3k5h6" d="M391.392000,400C387.008000,392.320000,377.184000,389.696000,369.536000,394.144000L352,404.288000L352,384C352,375.168000,344.832000,368,336,368C327.168000,368,320,375.168000,320,384L320,404.288000L302.432000,394.144000C294.816000,389.728000,285.024000,392.352000,280.576000,400C276.160000,407.648000,278.784000,417.440000,286.432000,421.856000L304.032000,432L286.432000,442.144000C278.784000,446.560000,276.160000,456.352000,280.576000,464C283.552000,469.120000,288.928000,472,294.432000,472C297.152000,472,299.904000,471.328000,302.432000,469.856000L320,459.712000L320,480C320,488.832000,327.168000,496,336,496C344.832000,496,352,488.832000,352,480L352,459.712000L369.568000,469.856000C372.096000,471.328000,374.848000,472,377.568000,472C383.072000,472,388.480000,469.120000,391.424000,464C395.872000,456.352000,393.248000,446.560000,385.568000,442.144000L367.968000,432L385.568000,421.856000C393.216000,417.440000,395.840000,407.648000,391.392000,400Z" transform="translate(0,0)" fill="rgb(126,129,144)" stroke="none" stroke-width="1"/></g><g id="efumo7vt3k5h7_to" transform="translate(-80.010606,-184)"><path id="efumo7vt3k5h7" d="M391.392000,400C387.008000,392.320000,377.184000,389.696000,369.536000,394.144000L352,404.288000L352,384C352,375.168000,344.832000,368,336,368C327.168000,368,320,375.168000,320,384L320,404.288000L302.432000,394.144000C294.816000,389.728000,285.024000,392.352000,280.576000,400C276.160000,407.648000,278.784000,417.440000,286.432000,421.856000L304.032000,432L286.432000,442.144000C278.784000,446.560000,276.160000,456.352000,280.576000,464C283.552000,469.120000,288.928000,472,294.432000,472C297.152000,472,299.904000,471.328000,302.432000,469.856000L320,459.712000L320,480C320,488.832000,327.168000,496,336,496C344.832000,496,352,488.832000,352,480L352,459.712000L369.568000,469.856000C372.096000,471.328000,374.848000,472,377.568000,472C383.072000,472,388.480000,469.120000,391.424000,464C395.872000,456.352000,393.248000,446.560000,385.568000,442.144000L367.968000,432L385.568000,421.856000C393.216000,417.440000,395.840000,407.648000,391.392000,400Z" transform="translate(0,0)" fill="rgb(126,129,144)" stroke="none" stroke-width="1"/></g><path id="efumo7vt3k5h8" d="M416,144C414.976000,144,413.952000,144,412.864000,144.032000C397.952000,70.016000,333.088000,16,256,16C191.968000,16,134.496000,54.112000,109.312000,112.032000C48.800000,113.472000,0,163.136000,0,224C0,285.760000,50.240000,336,112,336L416,336C468.928000,336,512,292.928000,512,240C512,187.072000,468.928000,144,416,144Z" fill="rgb(0,168,255)" stroke="none" stroke-width="1"/></svg>