<svg id="e55c3fdwds5k1" xmlns="http://www.w3.org/2000/svg" xmlns:xlink="http://www.w3.org/1999/xlink" viewBox="0 0 512 512" shape-rendering="geometricPrecision" text-rendering="geometricPrecision"><style><![CDATA[#e55c3fdwds5k4_to {animation: e55c3fdwds5k4_to__to 3000ms linear infinite normal forwards}@keyframes e55c3fdwds5k4_to__to { 0% {transform: translate(63.984000px,-64px)} 33.333333% {transform: translate(205.506673px,-14px)} 100% {transform: translate(-106.719665px,96px)} }#e55c3fdwds5k4 {animation: e55c3fdwds5k4_f_o 3000ms linear infinite normal forwards}@keyframes e55c3fdwds5k4_f_o { 0% {fill-opacity: 0} 33.333333% {fill-opacity: 1} 83.333333% {fill-opacity: 1} 100% {fill-opacity: 0} }#e55c3fdwds5k5_to {animation: e55c3fdwds5k5_to__to 3000ms linear infinite normal forwards}@keyframes e55c3fdwds5k5_to__to { 0% {transform: translate(-219.952268px,-78.434368px)} 33.333333% {transform: translate(-219.952268px,-78.434368px)} 100% {transform: translate(86.431665px,16px)} }#e55c3fdwds5k5 {animation: e55c3fdwds5k5_f_o 3000ms linear infinite normal forwards}@keyframes e55c3fdwds5k5_f_o { 0% {fill-opacity: 0} 33.333333% {fill-opacity: 0} 50% {fill-opacity: 1} 83.333333% {fill-opacity: 1} 100% {fill-opacity: 0} }]]></style><path id="e55c3fdwds5k2" d="M416,144C414.976000,144,413.952000,144,412.864000,144.032000C397.952000,70.016000,333.088000,16,256,16C191.968000,16,134.496000,54.112000,109.312000,112.032000C48.800000,113.472000,0,163.136000,0,224C0,285.760000,50.240000,336,112,336L416,336C468.928000,336,512,292.928000,512,240C512,187.072000,468.928000,144,416,144Z" fill="rgb(0,168,255)" stroke="none" stroke-width="1"/><g id="e55c3fdwds5k3"><g id="e55c3fdwds5k4_to" transform="translate(63.984000,-64)"><path id="e55c3fdwds5k4" d="M275.136000,272C270.688000,264.320000,260.896000,261.696000,253.280000,266.144000L208,292.288000L208,240C208,231.168000,200.832000,224,192,224C183.168000,224,176,231.168000,176,240L176,292.288000L130.720000,266.144000C123.072000,261.696000,113.280000,264.320000,108.864000,272C104.448000,279.648000,107.072000,289.440000,114.720000,293.856000L160.032000,320L114.720000,346.144000C107.072000,350.560000,104.448000,360.352000,108.864000,368C111.840000,373.120000,117.216000,376,122.752000,376C125.472000,376,128.224000,375.328000,130.752000,373.856000L176,347.712000L176,400C176,408.832000,183.168000,416,192,416C200.832000,416,208,408.832000,208,400L208,347.712000L253.280000,373.856000C255.808000,375.328000,258.560000,376,261.280000,376C266.816000,376,272.192000,373.120000,275.168000,368C279.584000,360.352000,276.960000,350.560000,269.312000,346.144000L223.968000,320L269.280000,293.856000C276.928000,289.440000,279.552000,279.648000,275.136000,272Z" transform="translate(0,0)" fill="rgb(207,216,220)" fill-opacity="0" stroke="none" stroke-width="1"/></g><g id="e55c3fdwds5k5_to" transform="translate(-219.952268,-78.434368)"><path id="e55c3fdwds5k5" d="M417.568000,442.144000L399.968000,432L417.568000,421.856000C425.216000,417.440000,427.840000,407.680000,423.424000,400C419.008000,392.320000,409.216000,389.696000,401.568000,394.144000L384,404.288000L384,384C384,375.168000,376.832000,368,368,368C359.168000,368,352,375.168000,352,384L352,404.288000L334.432000,394.144000C326.816000,389.728000,316.992000,392.352000,312.608000,400C308.160000,407.648000,310.784000,417.440000,318.464000,421.856000L336.032000,432L318.432000,442.144000C310.784000,446.560000,308.160000,456.352000,312.608000,464C315.552000,469.120000,320.960000,472,326.464000,472C329.184000,472,331.936000,471.328000,334.464000,469.856000L352,459.712000L352,480C352,488.832000,359.168000,496,368,496C376.832000,496,384,488.832000,384,480L384,459.712000L401.568000,469.856000C404.096000,471.328000,406.848000,472,409.568000,472C415.072000,472,420.480000,469.120000,423.424000,464C427.840000,456.352000,425.216000,446.560000,417.568000,442.144000Z" transform="translate(0,0)" fill="rgb(207,216,220)" fill-opacity="0" stroke="none" stroke-width="1"/></g></g></svg>