<svg id="e8jzlygv3knn1" xmlns="http://www.w3.org/2000/svg" xmlns:xlink="http://www.w3.org/1999/xlink" viewBox="0 0 512 512" shape-rendering="geometricPrecision" text-rendering="geometricPrecision"><style><![CDATA[#e8jzlygv3knn3_ts {animation: e8jzlygv3knn3_ts__ts 5000ms linear infinite normal forwards}@keyframes e8jzlygv3knn3_ts__ts { 0% {transform: translate(0px,0px) scale(0.800000,1)} 20% {transform: translate(0px,0px) scale(0.800000,1)} 30% {transform: translate(0px,0px) scale(1.090000,1)} 38% {transform: translate(0px,0px) scale(1,1)} 44% {transform: translate(0px,0px) scale(1.110000,1)} 64% {transform: translate(0px,0px) scale(1.110000,1)} 80% {transform: translate(0px,0px) scale(1,1)} 100% {transform: translate(0px,0px) scale(0.800000,1)} }#e8jzlygv3knn4_ts {animation: e8jzlygv3knn4_ts__ts 5000ms linear infinite normal forwards}@keyframes e8jzlygv3knn4_ts__ts { 0% {transform: translate(0px,0px) scale(0.800000,1)} 20% {transform: translate(0px,0px) scale(0.800000,1)} 30% {transform: translate(0px,0px) scale(1.090000,1)} 38% {transform: translate(0px,0px) scale(1,1)} 44% {transform: translate(0px,0px) scale(1.110000,1)} 64% {transform: translate(0px,0px) scale(1.110000,1)} 80% {transform: translate(0px,0px) scale(1,1)} 100% {transform: translate(0px,0px) scale(0.800000,1)} }#e8jzlygv3knn5_ts {animation: e8jzlygv3knn5_ts__ts 5000ms linear infinite normal forwards}@keyframes e8jzlygv3knn5_ts__ts { 0% {transform: translate(0px,0px) scale(0.800000,1)} 20% {transform: translate(0px,0px) scale(0.800000,1)} 30% {transform: translate(0px,0px) scale(1.090000,1)} 38% {transform: translate(0px,0px) scale(1,1)} 44% {transform: translate(0px,0px) scale(1.110000,1)} 64% {transform: translate(0px,0px) scale(1.110000,1)} 80% {transform: translate(0px,0px) scale(1,1)} 100% {transform: translate(0px,0px) scale(0.800000,1)} }]]></style><g id="e8jzlygv3knn2" transform="matrix(0.90000000000000 0 0 1 0 0)"><g id="e8jzlygv3knn3_ts" transform="translate(0,0) scale(0.800000,1)"><path id="e8jzlygv3knn3" d="M208,336L16,336C7.168000,336,0,343.168000,0,352C0,360.832000,7.168000,368,16,368L208,368C216.832000,368,224,375.200000,224,384C224,392.800000,216.832000,400,208,400C199.168000,400,192,407.168000,192,416C192,424.832000,199.168000,432,208,432C234.464000,432,256,410.464000,256,384C256,357.536000,234.464000,336,208,336Z" transform="translate(0,0)" fill="rgb(0,168,255)" stroke="none" stroke-width="1"/></g><g id="e8jzlygv3knn4_ts" transform="translate(0,0) scale(0.800000,1)"><path id="e8jzlygv3knn4" d="M16,176L304,176C330.464000,176,352,154.464000,352,128C352,101.536000,330.464000,80,304,80C295.168000,80,288,87.168000,288,96C288,104.832000,295.168000,112,304,112C312.832000,112,320,119.200000,320,128C320,136.800000,312.832000,144,304,144L16,144C7.168000,144,0,151.168000,0,160C0,168.832000,7.168000,176,16,176Z" transform="translate(0,0)" fill="rgb(0,168,255)" stroke="none" stroke-width="1"/></g><g id="e8jzlygv3knn5_ts" transform="translate(0,0) scale(0.800000,1)"><path id="e8jzlygv3knn5" d="M432,112C423.168000,112,416,119.168000,416,128C416,136.832000,423.168000,144,432,144C458.464000,144,480,165.536000,480,192C480,218.464000,458.464000,240,432,240L16,240C7.168000,240,0,247.168000,0,256C0,264.832000,7.168000,272,16,272L432,272C476.096000,272,512,236.128000,512,192C512,147.872000,476.096000,112,432,112Z" transform="translate(0,0)" fill="rgb(0,168,255)" stroke="none" stroke-width="1"/></g></g></svg>